<svg width="169" height="148" viewBox="0 0 169 148" fill="none" xmlns="http://www.w3.org/2000/svg">
<path d="M142.521 62.1718L142.378 61.0731L151.446 63.1257L151.586 64.2075L143.345 68.5105L143.202 67.4118L150.151 63.8784L150.142 63.8108L142.521 62.1718ZM145.954 62.1379L146.53 66.5666L145.6 66.6874L145.025 62.2588L145.954 62.1379Z" fill="white"/>
<path d="M143.39 75.3659L149.929 75.6685L149.882 76.6731L143.344 76.3705L143.39 75.3659ZM150.995 76.2297C151.004 76.0339 151.079 75.8681 151.219 75.7324C151.358 75.5995 151.522 75.5374 151.709 75.5461C151.896 75.5548 152.054 75.6317 152.181 75.7769C152.307 75.925 152.366 76.0969 152.357 76.2928C152.348 76.4886 152.274 76.6529 152.134 76.7858C151.994 76.9215 151.83 76.985 151.643 76.9764C151.456 76.9677 151.299 76.8893 151.172 76.7413C151.045 76.5961 150.986 76.4255 150.995 76.2297Z" fill="white"/>
<path d="M142.628 83.1097L149.056 84.345L148.872 85.2991L147.901 85.1125L147.889 85.1795C148.184 85.3578 148.401 85.6194 148.541 85.9643C148.68 86.3093 148.712 86.6743 148.638 87.0593C148.624 87.1318 148.605 87.2222 148.582 87.3305C148.558 87.4387 148.538 87.5202 148.522 87.575L147.517 87.382C147.532 87.3501 147.56 87.2758 147.599 87.159C147.641 87.0456 147.675 86.9233 147.7 86.7922C147.76 86.4797 147.748 86.1882 147.664 85.9175C147.583 85.6501 147.441 85.4233 147.24 85.237C147.04 85.0541 146.796 84.9348 146.506 84.879L142.438 84.0973L142.628 83.1097Z" fill="white"/>
<path d="M138.053 91.6656L146.432 94.9484L146.078 95.8531L145.11 95.4738L145.066 95.5849C145.145 95.6951 145.243 95.8432 145.359 96.0291C145.477 96.2187 145.556 96.454 145.595 96.7349C145.636 97.0195 145.579 97.3602 145.424 97.757C145.223 98.2701 144.917 98.6722 144.507 98.9632C144.097 99.2541 143.614 99.4172 143.057 99.4523C142.5 99.4874 141.902 99.3795 141.262 99.1288C140.616 98.8759 140.1 98.547 139.712 98.1419C139.327 97.7379 139.082 97.2907 138.975 96.8003C138.87 96.311 138.918 95.8124 139.117 95.3045C139.27 94.913 139.458 94.6249 139.68 94.4403C139.904 94.2567 140.124 94.134 140.341 94.0724C140.56 94.0117 140.738 93.9688 140.876 93.9435L140.908 93.8641L137.686 92.602L138.053 91.6656ZM143.025 94.6752C142.564 94.4949 142.132 94.4033 141.727 94.4004C141.325 94.3985 140.974 94.4883 140.674 94.6698C140.377 94.8524 140.155 95.1314 140.008 95.507C139.854 95.8985 139.829 96.2656 139.933 96.6083C140.039 96.9547 140.241 97.2629 140.541 97.533C140.843 97.8068 141.21 98.0286 141.644 98.1986C142.073 98.3664 142.485 98.4516 142.881 98.4541C143.278 98.4602 143.629 98.3704 143.934 98.1846C144.24 98.0025 144.471 97.7131 144.626 97.3163C144.775 96.9354 144.804 96.5775 144.713 96.2427C144.624 95.9088 144.433 95.6084 144.141 95.3415C143.852 95.0755 143.48 94.8534 143.025 94.6752Z" fill="white"/>
<path d="M141.958 109.473L134.477 104.979L134.995 104.117L142.476 108.611L141.958 109.473Z" fill="white"/>
<path d="M129.329 111.947C129.597 111.63 129.899 111.392 130.236 111.235C130.576 111.079 130.924 111.021 131.28 111.061C131.639 111.103 131.981 111.262 132.306 111.536C132.593 111.778 132.778 112.03 132.861 112.294C132.946 112.558 132.96 112.828 132.903 113.103C132.845 113.378 132.746 113.651 132.603 113.921C132.461 114.195 132.307 114.462 132.142 114.72C131.925 115.057 131.746 115.328 131.606 115.533C131.467 115.743 131.386 115.912 131.362 116.041C131.337 116.172 131.386 116.29 131.51 116.394L131.536 116.416C131.858 116.687 132.182 116.81 132.508 116.784C132.833 116.761 133.144 116.572 133.443 116.218C133.752 115.851 133.915 115.495 133.93 115.151C133.945 114.807 133.897 114.516 133.786 114.277L134.662 113.767C134.856 114.154 134.946 114.527 134.932 114.887C134.919 115.251 134.837 115.591 134.686 115.906C134.536 116.225 134.355 116.511 134.142 116.763C134.007 116.924 133.832 117.092 133.617 117.267C133.402 117.447 133.154 117.585 132.872 117.682C132.588 117.78 132.273 117.795 131.926 117.726C131.579 117.656 131.207 117.454 130.81 117.119L127.513 114.339L128.161 113.57L128.839 114.142L128.872 114.103C128.807 113.959 128.764 113.774 128.743 113.548C128.722 113.322 128.753 113.072 128.836 112.796C128.92 112.521 129.084 112.238 129.329 111.947ZM129.921 112.646C129.665 112.951 129.508 113.257 129.452 113.566C129.394 113.878 129.414 114.166 129.514 114.432C129.611 114.7 129.764 114.922 129.973 115.098L130.676 115.691C130.665 115.626 130.689 115.524 130.75 115.385C130.811 115.251 130.89 115.102 130.987 114.939C131.085 114.779 131.181 114.625 131.277 114.476C131.374 114.33 131.452 114.212 131.51 114.12C131.653 113.898 131.768 113.676 131.856 113.453C131.944 113.233 131.975 113.022 131.95 112.819C131.925 112.619 131.815 112.437 131.619 112.272C131.352 112.047 131.067 111.975 130.763 112.058C130.46 112.144 130.179 112.34 129.921 112.646Z" fill="white"/>
<path d="M124.358 122.825L121.91 119.74L122.698 119.115L126.767 124.242L126.006 124.846L125.37 124.045L125.303 124.098C125.39 124.454 125.373 124.808 125.254 125.16C125.136 125.515 124.884 125.846 124.496 126.153C124.149 126.428 123.789 126.598 123.416 126.662C123.044 126.729 122.672 126.676 122.3 126.504C121.929 126.334 121.57 126.03 121.224 125.594L118.639 122.336L119.427 121.711L121.97 124.916C122.289 125.318 122.643 125.549 123.03 125.608C123.42 125.669 123.797 125.555 124.162 125.265C124.413 125.065 124.595 124.833 124.706 124.566C124.816 124.302 124.844 124.02 124.791 123.721C124.739 123.422 124.594 123.123 124.358 122.825Z" fill="white"/>
<path d="M109.829 127.567C110.391 127.281 110.939 127.158 111.473 127.198C112.006 127.242 112.496 127.432 112.945 127.768C113.392 128.108 113.768 128.576 114.072 129.173C114.377 129.771 114.536 130.353 114.551 130.919C114.564 131.49 114.44 132.003 114.178 132.458C113.915 132.918 113.52 133.281 112.993 133.55C112.69 133.705 112.364 133.807 112.016 133.857C111.668 133.906 111.315 133.879 110.956 133.775C110.598 133.674 110.252 133.474 109.918 133.175C109.584 132.877 109.279 132.455 109.001 131.911L108.808 131.531L113.303 129.24L113.698 130.015L110.114 131.842C110.281 132.171 110.497 132.431 110.76 132.622C111.021 132.814 111.309 132.924 111.626 132.95C111.94 132.979 112.259 132.91 112.583 132.745C112.94 132.563 113.204 132.317 113.374 132.007C113.543 131.701 113.626 131.372 113.622 131.02C113.618 130.668 113.534 130.331 113.37 130.01L113.107 129.493C112.882 129.053 112.616 128.718 112.308 128.489C111.999 128.264 111.667 128.142 111.312 128.122C110.959 128.104 110.601 128.188 110.239 128.372C110.004 128.492 109.808 128.633 109.652 128.796C109.494 128.962 109.38 129.148 109.309 129.353C109.24 129.561 109.219 129.785 109.246 130.026L108.256 130.224C108.198 129.884 108.22 129.548 108.321 129.216C108.424 128.886 108.602 128.578 108.855 128.293C109.11 128.01 109.434 127.768 109.829 127.567Z" fill="white"/>
<path d="M57.3552 126.534L58.3118 127.093L51.1421 133.011L50.2002 132.461L51.8363 123.309L52.7929 123.868L51.3382 131.527L51.3971 131.561L57.3552 126.534ZM55.2821 129.271L51.4262 127.018L51.8992 126.208L55.7551 128.461L55.2821 129.271Z" fill="white"/>
<path d="M46.3846 119.152L42.1462 124.14L41.3799 123.489L45.6182 118.501L46.3846 119.152ZM41.0502 124.64C41.1995 124.767 41.2851 124.927 41.3069 125.121C41.3265 125.313 41.2756 125.48 41.1542 125.623C41.0328 125.766 40.8758 125.844 40.6833 125.855C40.4886 125.865 40.3165 125.806 40.1672 125.679C40.0178 125.552 39.9333 125.393 39.9137 125.201C39.8919 125.007 39.9417 124.839 40.0631 124.696C40.1845 124.553 40.3426 124.477 40.5373 124.467C40.7298 124.456 40.9008 124.513 41.0502 124.64Z" fill="white"/>
<path d="M40.7245 113.813L35.8159 118.143L35.1731 117.414L35.9145 116.76L35.8694 116.709C35.5476 116.834 35.2077 116.846 34.8497 116.745C34.4918 116.644 34.1831 116.446 33.9237 116.152C33.8749 116.097 33.8149 116.027 33.7437 115.942C33.6725 115.857 33.6203 115.791 33.587 115.745L34.3539 115.068C34.3701 115.099 34.4122 115.166 34.4802 115.269C34.5442 115.372 34.6204 115.473 34.7087 115.573C34.9192 115.812 35.1572 115.981 35.4227 116.08C35.6842 116.179 35.9503 116.206 36.2208 116.16C36.4873 116.115 36.7314 115.994 36.953 115.799L40.0592 113.059L40.7245 113.813Z" fill="white"/>
<path d="M36.7535 104.96L29.0311 109.582L28.5321 108.748L29.4243 108.214L29.363 108.112C29.2276 108.107 29.0507 108.094 28.8325 108.072C28.6103 108.049 28.3761 107.968 28.1297 107.827C27.8794 107.686 27.6449 107.432 27.426 107.066C27.143 106.593 27.0117 106.106 27.0322 105.603C27.0527 105.101 27.2194 104.619 27.5322 104.157C27.845 103.695 28.2964 103.287 28.8863 102.934C29.4811 102.578 30.0572 102.371 30.6146 102.312C31.1696 102.255 31.6738 102.334 32.1272 102.549C32.5781 102.766 32.9436 103.108 33.2237 103.576C33.4397 103.937 33.5528 104.262 33.5632 104.55C33.5712 104.84 33.5334 105.089 33.4499 105.298C33.3639 105.509 33.2887 105.676 33.2242 105.801L33.268 105.874L36.2371 104.097L36.7535 104.96ZM31.3315 107.053C31.7557 106.799 32.0926 106.513 32.3424 106.195C32.5898 105.878 32.7334 105.545 32.7732 105.197C32.8107 104.85 32.7258 104.503 32.5186 104.157C32.3027 103.797 32.0274 103.552 31.6928 103.425C31.3544 103.296 30.9865 103.268 30.5894 103.34C30.1883 103.412 29.7879 103.567 29.3881 103.806C28.9932 104.042 28.6738 104.316 28.4299 104.628C28.182 104.938 28.0384 105.271 27.9991 105.626C27.9558 105.979 28.0436 106.339 28.2625 106.705C28.4725 107.056 28.7381 107.297 29.059 107.43C29.3775 107.564 29.7316 107.597 30.1215 107.529C30.5089 107.463 30.9122 107.304 31.3315 107.053Z" fill="white"/>
<path d="M20.2764 97.1587L28.4075 93.9883L28.7728 94.9253L20.6418 98.0957L20.2764 97.1587Z" fill="white"/>
<path d="M26.043 85.6543C26.1303 86.0597 26.1333 86.4442 26.0517 86.8076C25.9674 87.1715 25.8004 87.4822 25.5506 87.7394C25.2981 87.9972 24.9636 88.171 24.547 88.2607C24.1804 88.3397 23.8677 88.3315 23.6089 88.2362C23.3473 88.1414 23.1252 87.9873 22.9426 87.7738C22.76 87.5603 22.6054 87.3147 22.4787 87.0368C22.3486 86.7568 22.2321 86.4724 22.1292 86.1836C21.9954 85.8056 21.89 85.4984 21.813 85.2622C21.7326 85.0238 21.6484 84.8559 21.5606 84.7586C21.4722 84.6585 21.3489 84.6255 21.1906 84.6596L21.1572 84.6668C20.7462 84.7554 20.4511 84.9366 20.2718 85.2106C20.0919 85.4819 20.0508 85.8438 20.1483 86.2965C20.2494 86.7659 20.4315 87.1117 20.6944 87.334C20.9574 87.5564 21.2172 87.6966 21.4738 87.7546L21.3416 88.7596C20.9168 88.6767 20.5663 88.5197 20.2898 88.2887C20.01 88.0555 19.7914 87.7829 19.6341 87.4709C19.4735 87.1568 19.3584 86.8387 19.289 86.5165C19.2447 86.311 19.2189 86.0696 19.2114 85.7922C19.2006 85.5126 19.2432 85.2317 19.3394 84.9495C19.4349 84.6644 19.616 84.406 19.8829 84.1741C20.1497 83.9423 20.5372 83.7716 21.0454 83.6621L25.2612 82.7539L25.473 83.737L24.6065 83.9237L24.6173 83.9737C24.7705 84.0104 24.943 84.0895 25.1348 84.2109C25.3266 84.3323 25.5059 84.5102 25.6726 84.7445C25.8394 84.9789 25.9628 85.2821 26.043 85.6543ZM25.1275 85.6946C25.0438 85.3058 24.8968 84.9945 24.6866 84.7608C24.4758 84.5243 24.235 84.3641 23.964 84.28C23.6925 84.1932 23.4234 84.1786 23.1568 84.236L22.257 84.4299C22.316 84.4607 22.3815 84.5425 22.4537 84.6752C22.5225 84.8057 22.5919 84.9593 22.662 85.136C22.7286 85.3105 22.7916 85.4815 22.8509 85.6489C22.9069 85.8141 22.9532 85.948 22.9898 86.0505C23.0782 86.2988 23.1838 86.526 23.3066 86.732C23.4261 86.9359 23.5741 87.09 23.7506 87.1943C23.9237 87.2965 24.1353 87.3207 24.3852 87.2669C24.7268 87.1933 24.9579 87.0113 25.0784 86.7208C25.1955 86.4282 25.2119 86.0861 25.1275 85.6946Z" fill="white"/>
<path d="M20.4777 75.068L24.4149 75.0178L24.4277 76.0234L17.8828 76.1068L17.8704 75.1353L18.8931 75.1223L18.892 75.037C18.5577 74.8879 18.2877 74.6583 18.082 74.3484C17.8735 74.0386 17.7661 73.6365 17.7598 73.1422C17.7542 72.6991 17.8401 72.3102 18.0177 71.9755C18.1924 71.6408 18.4619 71.3789 18.826 71.1896C19.1872 71.0003 19.6462 70.9021 20.203 70.895L24.3617 70.842L24.3746 71.8476L20.284 71.8997C19.7698 71.9063 19.371 72.0449 19.0875 72.3156C18.8011 72.5863 18.6609 72.9546 18.6668 73.4205C18.6709 73.7415 18.7442 74.0275 18.8866 74.2785C19.029 74.5267 19.2346 74.7216 19.5035 74.863C19.7723 75.0045 20.0971 75.0728 20.4777 75.068Z" fill="white"/>
<path d="M25.6114 60.6731C25.4943 61.2928 25.2565 61.8015 24.898 62.1993C24.5373 62.5937 24.0869 62.8657 23.5469 63.0152C23.0047 63.1614 22.4041 63.1723 21.7453 63.0478C21.0865 62.9233 20.5286 62.6936 20.0715 62.3586C19.6121 62.0202 19.2823 61.6081 19.0821 61.1222C18.8796 60.6329 18.8333 60.0979 18.943 59.5173C19.0063 59.1823 19.1246 58.8621 19.298 58.5565C19.4713 58.251 19.7089 57.988 20.0108 57.7675C20.3099 57.5465 20.6796 57.3951 21.1201 57.3136C21.5605 57.232 22.0808 57.2479 22.6809 57.3613L23.0997 57.4404L22.163 62.3981L21.3088 62.2367L22.0556 58.2839C21.6927 58.2154 21.3552 58.2268 21.043 58.3181C20.7314 58.4067 20.4682 58.568 20.2534 58.8021C20.0391 59.0334 19.8982 59.3277 19.8307 59.685C19.7563 60.0786 19.7897 60.4376 19.9308 60.7621C20.0696 61.0832 20.2794 61.3498 20.5603 61.5619C20.8411 61.774 21.1588 61.9135 21.5133 61.9805L22.0828 62.0881C22.5685 62.1798 22.9961 62.1739 23.3655 62.0702C23.7327 61.9632 24.0327 61.7756 24.2655 61.5073C24.4955 61.2386 24.6482 60.9046 24.7237 60.5054C24.7727 60.2458 24.7807 60.0044 24.7477 59.7813C24.7124 59.555 24.6353 59.351 24.5164 59.1695C24.3946 58.9875 24.23 58.8335 24.0225 58.7076L24.4709 57.8035C24.7757 57.9652 25.0285 58.1879 25.2293 58.4716C25.4274 58.7547 25.5618 59.0837 25.6327 59.4585C25.7007 59.8328 25.6936 60.2376 25.6114 60.6731Z" fill="white"/>
<path d="M46.543 26.5337L45.6394 27.175L43.2015 18.2033L44.0911 17.5719L51.7556 22.8341L50.852 23.4754L44.4732 18.9938L44.4176 19.0333L46.543 26.5337ZM44.9034 23.5169L48.5453 20.9321L49.0879 21.6966L45.4461 24.2814L44.9034 23.5169Z" fill="white"/>
<path d="M57.7895 19.5799L54.9915 13.6627L55.9006 13.2328L58.6987 19.15L57.7895 19.5799ZM54.9874 12.4579C54.8102 12.5416 54.6288 12.5536 54.4434 12.4936C54.2604 12.4324 54.1289 12.317 54.0487 12.1475C53.9686 11.978 53.9629 11.8031 54.0317 11.6229C54.103 11.4415 54.2273 11.3089 54.4045 11.2251C54.5817 11.1413 54.7618 11.13 54.9447 11.1912C55.1302 11.2512 55.263 11.3659 55.3431 11.5354C55.4233 11.7049 55.4277 11.8804 55.3564 12.0618C55.2876 12.2421 55.1646 12.3741 54.9874 12.4579Z" fill="white"/>
<path d="M64.9869 16.623L63.0646 10.3662L63.9933 10.0809L64.2837 11.0259L64.3489 11.0059C64.3678 10.6613 64.497 10.3467 64.7365 10.0621C64.976 9.77748 65.2831 9.57761 65.6578 9.46247C65.7284 9.44078 65.8171 9.41502 65.9239 9.3852C66.0306 9.35537 66.112 9.33483 66.168 9.32358L66.4683 10.3012C66.4332 10.3031 66.3548 10.3138 66.233 10.3334C66.1131 10.3494 65.9894 10.377 65.8617 10.4162C65.5576 10.5097 65.3056 10.6569 65.1059 10.858C64.908 11.0555 64.774 11.2869 64.7039 11.5521C64.6357 11.8138 64.645 12.0859 64.7318 12.3683L65.9483 16.3277L64.9869 16.623Z" fill="white"/>
<path d="M74.6895 16.6533L73.6606 7.71226L74.6258 7.60119L74.7447 8.63414L74.8632 8.6205C74.9236 8.49916 75.0086 8.34354 75.1183 8.15361C75.2305 7.96055 75.4014 7.78074 75.631 7.61419C75.8631 7.44449 76.1909 7.33529 76.6142 7.28657C77.1617 7.22356 77.6601 7.3049 78.1093 7.53059C78.5585 7.75629 78.9291 8.10684 79.2212 8.58225C79.5133 9.05766 79.6986 9.63686 79.7772 10.3198C79.8564 11.0085 79.808 11.6189 79.6319 12.151C79.4555 12.6803 79.1757 13.1072 78.7927 13.4315C78.4093 13.753 77.9467 13.9449 77.4048 14.0073C76.9871 14.0554 76.6447 14.0247 76.3776 13.9153C76.1102 13.8031 75.8985 13.6659 75.7426 13.5037C75.5863 13.3387 75.4647 13.2011 75.3777 13.091L75.293 13.1007L75.6886 16.5383L74.6895 16.6533ZM75.0169 10.8505C75.0734 11.3416 75.1952 11.7665 75.3823 12.1253C75.5692 12.4813 75.813 12.7492 76.114 12.9291C76.4146 13.1061 76.7653 13.1715 77.166 13.1254C77.5837 13.0773 77.9196 12.9272 78.1737 12.6749C78.4303 12.4194 78.6075 12.0959 78.7054 11.7043C78.8059 11.3095 78.8294 10.8807 78.7762 10.4179C78.7235 9.96068 78.6056 9.55675 78.4222 9.20609C78.2414 8.85229 77.9975 8.58438 77.6906 8.40236C77.3862 8.2172 77.0223 8.14898 76.599 8.1977C76.1926 8.24446 75.8629 8.38678 75.61 8.62463C75.3568 8.85967 75.1808 9.16875 75.0819 9.55189C74.9827 9.9322 74.961 10.3651 75.0169 10.8505Z" fill="white"/>
<path d="M88.5878 4.85505L88.1256 13.5701L87.1214 13.5168L87.5835 4.8018L88.5878 4.85505Z" fill="white"/>
<path d="M96.6933 14.8503C96.2879 14.7628 95.9364 14.607 95.6389 14.383C95.342 14.1562 95.1278 13.876 94.9964 13.5424C94.8655 13.2061 94.845 12.8297 94.9349 12.4132C95.014 12.0466 95.1504 11.765 95.3439 11.5685C95.538 11.3692 95.77 11.2303 96.0398 11.1519C96.3095 11.0736 96.5971 11.0339 96.9025 11.033C97.2112 11.0298 97.5183 11.0409 97.8239 11.0661C98.2234 11.1001 98.5467 11.1306 98.7937 11.1577C99.0441 11.1827 99.2317 11.1752 99.3565 11.1354C99.4842 11.0961 99.5651 10.9973 99.5992 10.839L99.6064 10.8056C99.6951 10.3947 99.6516 10.051 99.4758 9.77477C99.3028 9.49912 98.9899 9.31245 98.5373 9.21476C98.068 9.11348 97.6779 9.13682 97.3669 9.28478C97.056 9.43274 96.8212 9.61167 96.6626 9.82156L95.8014 9.28696C96.0519 8.93414 96.3394 8.6794 96.6639 8.52272C96.9917 8.36387 97.3301 8.27706 97.6791 8.26229C98.0316 8.24535 98.3688 8.27163 98.691 8.34115C98.8965 8.3855 99.1271 8.46143 99.3829 8.56895C99.6421 8.67429 99.8805 8.82891 100.098 9.0328C100.318 9.2373 100.479 9.50887 100.58 9.84752C100.682 10.1862 100.678 10.6096 100.568 11.1178L99.6582 15.3332L98.6751 15.1211L98.8621 14.2547L98.8121 14.2439C98.7155 14.3683 98.5724 14.4929 98.3827 14.6177C98.193 14.7424 97.9571 14.8324 97.6748 14.8878C97.3926 14.9431 97.0654 14.9306 96.6933 14.8503ZM97.0339 13.9996C97.4226 14.0835 97.7668 14.0779 98.0663 13.9827C98.3687 13.888 98.6139 13.7346 98.8022 13.5224C98.9931 13.3108 99.1174 13.0717 99.1749 12.8051L99.3691 11.9053C99.3167 11.9463 99.2151 11.9724 99.0645 11.9835C98.9173 11.9924 98.7487 11.9923 98.5589 11.9833C98.3724 11.9721 98.1906 11.9591 98.0137 11.9441C97.8401 11.927 97.699 11.914 97.5905 11.9051C97.3278 11.8833 97.0773 11.8859 96.839 11.9129C96.604 11.9378 96.4026 12.0091 96.2348 12.127C96.0703 12.2426 95.9611 12.4254 95.9072 12.6753C95.8335 13.0169 95.9041 13.3024 96.119 13.5319C96.3374 13.7592 96.6423 13.9151 97.0339 13.9996Z" fill="white"/>
<path d="M108.632 14.142L107.056 17.75L106.134 17.3473L108.755 11.3496L109.646 11.7386L109.236 12.6758L109.314 12.7099C109.588 12.4668 109.908 12.3154 110.275 12.2557C110.644 12.1934 111.054 12.2612 111.507 12.4592C111.913 12.6367 112.232 12.8753 112.464 13.175C112.697 13.4721 112.824 13.8255 112.847 14.2353C112.87 14.6424 112.771 15.1011 112.548 15.6113L110.882 19.4224L109.961 19.0196L111.599 15.2711C111.805 14.7999 111.843 14.3794 111.713 14.0095C111.585 13.6371 111.307 13.3575 110.88 13.171C110.586 13.0424 110.295 12.9913 110.007 13.0176C109.723 13.045 109.46 13.1521 109.221 13.3388C108.981 13.5254 108.785 13.7932 108.632 14.142Z" fill="white"/>
<path d="M119.632 24.7517C119.116 24.3896 118.751 23.9633 118.536 23.4728C118.325 22.9815 118.263 22.4591 118.349 21.9055C118.44 21.3512 118.677 20.7995 119.062 20.2506C119.447 19.7016 119.886 19.2879 120.38 19.0095C120.877 18.7303 121.389 18.5997 121.914 18.6175C122.443 18.6347 122.95 18.8129 123.434 19.1521C123.713 19.3479 123.956 19.5876 124.163 19.8715C124.37 20.1554 124.511 20.4803 124.588 20.8462C124.666 21.2098 124.652 21.609 124.544 22.0439C124.437 22.4788 124.208 22.9463 123.858 23.4464L123.613 23.7954L119.482 20.8988L119.981 20.187L123.275 22.4964C123.487 22.194 123.615 21.8818 123.661 21.5597C123.709 21.2393 123.67 20.933 123.545 20.6408C123.423 20.3503 123.213 20.1006 122.915 19.8918C122.587 19.6619 122.246 19.5443 121.892 19.5392C121.543 19.5333 121.213 19.6146 120.904 19.7831C120.595 19.9516 120.337 20.1836 120.13 20.479L119.797 20.9535C119.514 21.3583 119.343 21.7503 119.285 22.1296C119.231 22.5083 119.279 22.8589 119.427 23.1816C119.577 23.502 119.818 23.7787 120.151 24.012C120.367 24.1636 120.584 24.2704 120.801 24.3322C121.022 24.3934 121.239 24.4072 121.454 24.3736C121.67 24.3377 121.878 24.2511 122.078 24.114L122.717 24.8951C122.444 25.1062 122.137 25.2448 121.796 25.3108C121.456 25.3746 121.101 25.3615 120.73 25.2716C120.361 25.1794 119.995 25.0061 119.632 24.7517Z" fill="white"/>
</svg>
